<svg width="116.083496" height="35.000000" viewBox="0 0 116.083 35" fill="none" xmlns="http://www.w3.org/2000/svg" xmlns:xlink="http://www.w3.org/1999/xlink">
	<desc>
			Created with Pixso.
	</desc>
	<defs>
		<clipPath id="clip291_4937">
			<rect id="Icon" width="11.871900" height="11.871900" transform="translate(12.141602 11.602051)" fill="white" fill-opacity="0"/>
		</clipPath>
	</defs>
	<rect id="Vector" width="35.000000" height="35.000000" fill="#FFFFFF" fill-opacity="0"/>
	<path id="Vector" d="M29.0405 14.0491C28.7954 6.37744 22.5791 0.186523 14.8818 0C14.6836 0 14.52 0.151611 14.52 0.349854L14.5083 5.50293C14.5083 5.75952 14.3101 5.95776 14.0537 5.96924C6.37939 6.20264 0.186523 12.4285 0 20.1233C0 20.3215 0.151855 20.4846 0.350098 20.4846L5.49316 20.4963C5.74951 20.4963 5.94824 20.6946 5.95947 20.9509C6.20459 28.6226 12.4326 34.8135 20.1182 35C20.3164 35 20.48 34.8484 20.48 34.6503L20.4917 29.4971C20.4917 29.2405 20.6899 29.0422 20.9463 29.0308C28.6206 28.7859 34.8135 22.5601 35 14.8767C35 14.6785 34.8481 14.5154 34.6499 14.5154L29.5068 14.5037C29.2505 14.5037 29.0518 14.3054 29.0405 14.0491ZM19.9785 28.9956C15.6167 28.7393 12.1177 25.1948 11.9546 20.811C11.9429 20.6245 11.791 20.4729 11.6045 20.4729L6.47266 20.4614C6.20459 20.4614 5.99463 20.2397 6.00635 19.9717C6.2627 15.6113 9.80859 12.1135 14.1934 11.9504C14.3804 11.9387 14.5317 11.7871 14.5317 11.6006L14.5435 6.45898C14.5435 6.19092 14.7651 5.98096 15.0332 5.99268C19.395 6.24927 22.894 9.79346 23.0571 14.1772C23.0688 14.3638 23.2207 14.5154 23.4072 14.5154L28.5391 14.5271C28.8071 14.5271 29.0171 14.7485 29.0054 15.0166C28.7485 19.4937 25.0283 23.0496 20.4917 23.0496L20.48 28.5293C20.4683 28.7974 20.2466 29.0073 19.9785 28.9956Z" fill="#E60000" fill-opacity="1.000000" fill-rule="evenodd"/>
	<g clip-path="url(#clip291_4937)">
		<path id="Rectangle 511 (Stroke)" d="M14.3677 14.3982C14.3677 13.6929 15.124 13.2456 15.7422 13.5857L21.4507 16.7253C22.0913 17.0779 22.0913 17.9983 21.4507 18.3508L15.7422 21.4905C15.124 21.8306 14.3677 21.3833 14.3677 20.678L14.3677 14.3982Z" fill="#FFFFFF" fill-opacity="1.000000" fill-rule="evenodd"/>
	</g>
	<path id="StreamVibe" d="M98.9658 13.0244Q98.9658 13.2449 98.8994 13.4426Q98.8799 13.4993 98.8555 13.554C98.7866 13.718 98.6909 13.8623 98.5684 13.9866C98.4453 14.106 98.3008 14.2029 98.1338 14.2776C97.9717 14.3472 97.7974 14.3821 97.6108 14.3821C97.4243 14.3821 97.2476 14.3472 97.0806 14.2776C96.9185 14.2029 96.7759 14.106 96.6533 13.9866C96.5356 13.8623 96.4395 13.718 96.3662 13.554C96.2974 13.3899 96.2627 13.2134 96.2627 13.0244C96.2627 12.8403 96.2974 12.6663 96.3662 12.5022C96.4395 12.3333 96.5356 12.189 96.6533 12.0696C96.7759 11.9453 96.9185 11.8481 97.0806 11.7786C97.2476 11.7041 97.4243 11.6667 97.6108 11.6667C97.7974 11.6667 97.9717 11.7041 98.1338 11.7786C98.3008 11.8481 98.4453 11.9453 98.5684 12.0696C98.6909 12.189 98.7866 12.3333 98.8555 12.5022Q98.8965 12.5935 98.9224 12.689Q98.9658 12.8508 98.9658 13.0244ZM50.1992 23.1843C49.7134 23.1843 49.2563 23.0923 48.8296 22.9082C48.4023 22.7192 48.0264 22.4631 47.7026 22.1399C47.3833 21.8118 47.1304 21.4312 46.9438 20.9985Q46.8901 20.8711 46.8472 20.7402L46.8472 20.74Q46.6714 20.2043 46.6714 19.6111L46.6714 17.239L45.6919 17.239L45.6919 15.21L46.6714 15.21L46.6714 12.0173L48.6748 12.0173L48.6748 15.21L51.7241 15.21L51.7241 17.239L48.6748 17.239L48.6748 19.6111C48.6748 19.825 48.7139 20.0264 48.7925 20.2153C48.8711 20.3994 48.979 20.561 49.1167 20.7002C49.2539 20.8394 49.416 20.9514 49.6025 21.0359C49.7896 21.1155 49.9883 21.1553 50.1992 21.1553L51.7241 21.1553L51.7241 23.1843L50.1992 23.1843ZM108.055 19.1189C108.055 19.7454 107.949 20.3174 107.738 20.8345Q107.433 21.5833 106.914 22.1306Q106.896 22.1504 106.876 22.1697C106.513 22.5378 106.086 22.8237 105.595 23.0276Q105.506 23.0649 105.415 23.0979L105.415 23.0979Q104.763 23.3335 104.026 23.3335C103.471 23.3335 102.948 23.229 102.457 23.02C101.971 22.8113 101.544 22.5203 101.176 22.1475C100.812 21.7744 100.525 21.3318 100.314 20.8196Q99.9971 20.0437 99.9971 19.1189L99.9971 12.0173L102.015 12.0173L102.015 15.7471C102.124 15.6079 102.253 15.4836 102.406 15.374C102.563 15.2646 102.73 15.1753 102.907 15.1055C103.088 15.0359 103.275 14.9836 103.466 14.949C103.658 14.9092 103.844 14.8892 104.026 14.8892Q104.703 14.8892 105.308 15.0977Q105.454 15.1477 105.595 15.21C106.086 15.4189 106.513 15.7124 106.876 16.0903Q106.911 16.126 106.944 16.1626Q107.441 16.7061 107.738 17.4329C107.949 17.9451 108.055 18.5071 108.055 19.1189ZM36.75 15.6948Q36.75 15.1741 36.9043 14.7039Q36.9463 14.5745 37.0005 14.4492Q37.1997 13.9866 37.5103 13.6184L37.5103 13.6184Q37.5903 13.5234 37.6782 13.4346Q37.8481 13.2625 38.0396 13.1189L38.0396 13.1189Q38.3374 12.8953 38.687 12.741Q38.8311 12.6772 38.9805 12.6296L38.9805 12.6296Q39.4258 12.4873 39.917 12.4873L44.7637 12.4873L44.7637 14.6282L39.917 14.6282C39.77 14.6282 39.6323 14.6555 39.5049 14.7102C39.377 14.7649 39.2642 14.842 39.166 14.9414C39.0728 15.0359 38.999 15.1479 38.9448 15.2771Q38.9365 15.2974 38.9287 15.3179L38.9287 15.3179Q38.8638 15.4944 38.8638 15.6948C38.8638 15.844 38.8911 15.9858 38.9448 16.1201C38.999 16.2493 39.0728 16.3638 39.166 16.4631C39.2642 16.5576 39.377 16.6323 39.5049 16.687Q39.5322 16.6987 39.5601 16.7087Q39.728 16.769 39.917 16.769L42.0312 16.769Q42.522 16.769 42.9678 16.9114L42.9678 16.9114Q43.1172 16.959 43.2612 17.0227C43.6489 17.1868 43.9854 17.4155 44.27 17.709C44.5601 17.9973 44.7856 18.3381 44.9478 18.731Q45.0015 18.8562 45.0439 18.9854L45.0439 18.9856Q45.1982 19.4558 45.1982 19.9766C45.1982 20.4192 45.1147 20.8345 44.9478 21.2224C44.7856 21.6104 44.5601 21.9509 44.27 22.2444C43.9854 22.5327 43.6489 22.7615 43.2612 22.9307Q43.1172 22.9941 42.9678 23.0417L42.9678 23.0417Q42.522 23.1843 42.0312 23.1843L37.3394 23.1843L37.3394 21.0435L42.0312 21.0435C42.1782 21.0435 42.3159 21.0161 42.4434 20.9612C42.5713 20.9065 42.6816 20.832 42.7749 20.7375C42.873 20.6379 42.9492 20.5237 43.0034 20.3943C43.0571 20.2651 43.0845 20.1257 43.0845 19.9766C43.0845 19.8274 43.0571 19.6882 43.0034 19.5588C42.9492 19.4297 42.873 19.3176 42.7749 19.2231C42.6816 19.1238 42.5713 19.0466 42.4434 18.9919C42.3159 18.9373 42.1782 18.9099 42.0312 18.9099L39.917 18.9099Q39.4258 18.9099 38.9805 18.7676L38.9805 18.7676Q38.8311 18.72 38.687 18.6562Q38.2979 18.4844 37.9727 18.2302L37.9727 18.2302Q37.8179 18.1094 37.6782 17.97Q37.5688 17.8574 37.4707 17.7354Q37.1865 17.3811 37.0005 16.948Q36.9316 16.7861 36.8818 16.6187Q36.75 16.1765 36.75 15.6948ZM95.7915 12.4873L92.3223 23.1843L90.2085 23.1843L86.7539 12.4873L89.1553 12.4873L91.2617 19.626L93.3755 12.4873L95.7915 12.4873ZM62.0947 21.2297C62.1733 21.2546 62.2515 21.2722 62.3301 21.282C62.4087 21.2871 62.4873 21.2896 62.5659 21.2896Q62.8315 21.2896 63.0791 21.2229L63.082 21.2219Q63.1079 21.2151 63.1333 21.2075C63.3149 21.1528 63.4844 21.0757 63.6411 20.9763C63.8032 20.8718 63.9458 20.7476 64.0684 20.6033C64.1963 20.4541 64.2993 20.29 64.3779 20.1108L65.8511 21.6104C65.6646 21.8789 65.4482 22.1201 65.2026 22.3337C64.9619 22.5476 64.6992 22.7292 64.4146 22.8784C64.1348 23.0276 63.8379 23.1394 63.5234 23.2141C63.2139 23.2937 62.895 23.3335 62.5659 23.3335C62.0112 23.3335 61.4883 23.229 60.9971 23.02C60.5107 22.8113 60.084 22.5203 59.7153 22.1475Q59.6724 22.103 59.6304 22.0574Q59.1455 21.5269 58.8535 20.8196Q58.5371 20.0437 58.5371 19.1189Q58.5371 18.1714 58.8535 17.3882Q59.1704 16.605 59.7153 16.053C60.084 15.6848 60.5107 15.3989 60.9971 15.1951C61.4883 14.9912 62.0112 14.8892 62.5659 14.8892C62.895 14.8892 63.2163 14.929 63.5308 15.0085C63.8452 15.0881 64.1421 15.2026 64.4219 15.3518C64.707 15.501 64.9722 15.6848 65.2173 15.9038C65.4629 16.1177 65.6792 16.3589 65.8657 16.6274L62.0947 21.2297ZM74.4609 23.1843L73.9751 23.1843L73.1943 22.0876C73.0029 22.2617 72.7988 22.4258 72.583 22.5801C72.3716 22.7292 72.1484 22.8611 71.9126 22.9753C71.6768 23.0847 71.4341 23.1719 71.1836 23.2363C70.938 23.301 70.6875 23.3335 70.4321 23.3335C69.8774 23.3335 69.3545 23.239 68.8633 23.05C68.3774 22.8611 67.9502 22.5874 67.582 22.2295C67.2183 21.8665 66.9312 21.4238 66.7202 20.9016Q66.4033 20.1184 66.4033 19.1189C66.4033 18.4971 66.5088 17.9277 66.7202 17.4106C66.9312 16.8884 67.2183 16.4409 67.582 16.0679C67.9502 15.6948 68.3774 15.4065 68.8633 15.2026C69.3545 14.9937 69.8774 14.8892 70.4321 14.8892C70.6875 14.8892 70.9404 14.9216 71.1909 14.9863C71.4414 15.0508 71.6846 15.1404 71.9199 15.2549C72.1558 15.3691 72.3794 15.5034 72.5903 15.6575C72.8062 15.8118 73.0078 15.9783 73.1943 16.1575L73.9751 15.21L74.4609 15.21L74.4609 23.1843ZM112.312 21.2297C112.391 21.2546 112.469 21.2722 112.548 21.282C112.626 21.2871 112.705 21.2896 112.784 21.2896Q113.049 21.2896 113.297 21.2229Q113.324 21.2156 113.351 21.2075Q113.561 21.144 113.75 21.041L113.75 21.0408L113.751 21.0398Q113.806 21.0098 113.859 20.9763C114.021 20.8718 114.164 20.7476 114.286 20.6033C114.414 20.4541 114.517 20.29 114.596 20.1108L116.069 21.6104C115.882 21.8789 115.666 22.1201 115.42 22.3337C115.18 22.5476 114.917 22.7292 114.632 22.8784C114.353 23.0276 114.055 23.1394 113.741 23.2141C113.432 23.2937 113.113 23.3335 112.784 23.3335C112.229 23.3335 111.706 23.229 111.215 23.02C110.729 22.8113 110.301 22.5203 109.933 22.1475C109.57 21.7744 109.283 21.3318 109.071 20.8196C108.86 20.3025 108.755 19.7354 108.755 19.1189C108.755 18.4873 108.86 17.9104 109.071 17.3882C109.283 16.866 109.57 16.4209 109.933 16.053C110.301 15.6848 110.729 15.3989 111.215 15.1951C111.706 14.9912 112.229 14.8892 112.784 14.8892C113.113 14.8892 113.434 14.929 113.749 15.0085C114.063 15.0881 114.36 15.2026 114.64 15.3518C114.924 15.501 115.189 15.6848 115.435 15.9038C115.681 16.1177 115.897 16.3589 116.083 16.6274L112.312 21.2297ZM86.0322 23.1843L84.0288 23.1843L84.0288 18.1118C84.0288 17.9724 84.002 17.8408 83.9478 17.7163C83.8989 17.592 83.8276 17.4827 83.7344 17.3882C83.6411 17.2937 83.5327 17.2217 83.4102 17.1719C83.2876 17.1172 83.1572 17.0898 83.02 17.0898Q82.8896 17.0898 82.7681 17.1226Q82.6973 17.1416 82.6294 17.1719C82.5117 17.2217 82.4062 17.2937 82.3125 17.3882C82.2241 17.4827 82.1533 17.592 82.0991 17.7163C82.0498 17.8408 82.0254 17.9724 82.0254 18.1118L82.0254 23.1843L80.0146 23.1843L80.0146 18.1118C80.0146 17.9724 79.9878 17.8408 79.9336 17.7163C79.8848 17.592 79.8135 17.4827 79.7202 17.3882C79.627 17.2937 79.5186 17.2217 79.396 17.1719C79.2734 17.1172 79.1431 17.0898 79.0059 17.0898C78.8682 17.0898 78.7378 17.1172 78.6152 17.1719C78.4976 17.2217 78.3916 17.2937 78.2983 17.3882C78.21 17.4827 78.1392 17.592 78.085 17.7163C78.0356 17.8408 78.0112 17.9724 78.0112 18.1118L78.0112 23.1843L76.0005 23.1843L76.0005 15.1951L76.4868 15.1951L77.0317 15.8069C77.3115 15.5681 77.6187 15.384 77.9521 15.2549C78.291 15.1206 78.6421 15.0535 79.0059 15.0535C79.374 15.0535 79.7324 15.123 80.0811 15.2622C80.4346 15.4014 80.7437 15.6426 81.0088 15.9858C81.1318 15.8167 81.272 15.6726 81.4287 15.5532C81.5859 15.4338 81.7505 15.3369 81.9224 15.2622C82.0991 15.1877 82.2808 15.1355 82.4673 15.1055C82.6538 15.0708 82.8379 15.0535 83.02 15.0535C83.437 15.0535 83.8276 15.1328 84.1909 15.292C84.5591 15.4512 84.8784 15.6699 85.1484 15.9485Q85.2388 16.0383 85.3203 16.135Q85.6123 16.4812 85.7964 16.9182C85.9536 17.2913 86.0322 17.689 86.0322 18.1118L86.0322 23.1843ZM54.8691 23.1843L52.8584 23.1843L52.8584 15.1951L53.3442 15.1951L54.0073 16.1423C54.3315 15.844 54.6997 15.6152 55.1123 15.4563Q55.4409 15.3252 55.7822 15.2639L55.7827 15.2639Q56.083 15.21 56.3936 15.21L58.1689 15.21L58.1689 17.239L56.3936 17.239C56.1826 17.239 55.9839 17.2788 55.7969 17.3584C55.6104 17.438 55.4482 17.5474 55.311 17.6865C55.1733 17.8259 55.0654 17.99 54.9868 18.179C54.9082 18.3679 54.8691 18.5693 54.8691 18.7832L54.8691 23.1843ZM98.6196 23.1843L96.5942 23.1843L96.5942 15.1951L98.6196 15.1951L98.6196 23.1843ZM63.1255 17.03C63.0322 16.9954 62.939 16.9729 62.8457 16.9629Q62.7134 16.948 62.5659 16.948C62.291 16.948 62.0308 17.0002 61.7852 17.1047C61.5444 17.2041 61.3335 17.3484 61.1519 17.5374C60.9751 17.7263 60.835 17.9551 60.7319 18.2236C60.6289 18.4873 60.5771 18.7856 60.5771 19.1189C60.5771 19.1934 60.5796 19.2778 60.5845 19.3723C60.5942 19.4668 60.6069 19.564 60.6216 19.6633C60.6411 19.7578 60.6631 19.8499 60.6875 19.9395C60.7124 20.0288 60.7441 20.1084 60.7837 20.178L63.1255 17.03ZM72.4355 19.1189C72.4355 18.8403 72.3818 18.5718 72.2734 18.3132C72.1704 18.0496 72.0283 17.8184 71.8462 17.6194C71.6646 17.4155 71.4512 17.2539 71.2056 17.1345C70.9648 17.0103 70.707 16.948 70.4321 16.948Q70.0913 16.948 69.7803 17.0449Q69.7153 17.0652 69.6514 17.0898C69.4111 17.1843 69.1997 17.3235 69.0181 17.5076C68.8413 17.6917 68.7012 17.9204 68.5981 18.1938C68.4951 18.4624 68.4434 18.7708 68.4434 19.1189C68.4434 19.4668 68.4951 19.7778 68.5981 20.0513C68.7012 20.3198 68.8413 20.5461 69.0181 20.73Q69.1548 20.8687 69.314 20.9734Q69.4717 21.0771 69.6514 21.1477Q69.7148 21.1721 69.7788 21.1921L69.7803 21.1926Q70.0913 21.2896 70.4321 21.2896C70.707 21.2896 70.9648 21.2297 71.2056 21.1106C71.4512 20.9861 71.6646 20.8245 71.8462 20.6257C72.0283 20.4216 72.1704 20.1904 72.2734 19.9319C72.3818 19.6682 72.4355 19.3972 72.4355 19.1189ZM106.029 19.1189C106.029 18.8105 105.976 18.5244 105.868 18.261C105.764 17.9924 105.622 17.7612 105.44 17.5671C105.259 17.3733 105.045 17.2217 104.799 17.1123C104.559 17.0027 104.301 16.948 104.026 16.948C103.751 16.948 103.491 17.0103 103.245 17.1345C103.005 17.2539 102.793 17.4155 102.612 17.6194C102.43 17.8184 102.288 18.0496 102.185 18.3132C102.082 18.5718 102.03 18.8403 102.03 19.1189C102.03 19.427 102.082 19.7131 102.185 19.9766C102.288 20.2402 102.43 20.469 102.612 20.6628C102.793 20.8569 103.005 21.011 103.245 21.1255C103.491 21.2349 103.751 21.2896 104.026 21.2896C104.301 21.2896 104.559 21.2349 104.799 21.1255C105.045 21.011 105.259 20.8569 105.44 20.6628C105.622 20.469 105.764 20.2402 105.868 19.9766C105.976 19.7131 106.029 19.427 106.029 19.1189ZM113.343 17.03C113.25 16.9954 113.157 16.9729 113.063 16.9629C112.975 16.9531 112.882 16.948 112.784 16.948C112.509 16.948 112.249 17.0002 112.003 17.1047Q111.837 17.1733 111.69 17.2703Q111.517 17.3843 111.37 17.5374C111.193 17.7263 111.053 17.9551 110.95 18.2236C110.847 18.4873 110.795 18.7856 110.795 19.1189C110.795 19.1934 110.797 19.2778 110.802 19.3723C110.812 19.4668 110.824 19.564 110.839 19.6633C110.859 19.7578 110.881 19.8499 110.905 19.9395C110.93 20.0288 110.962 20.1084 111.001 20.178L113.343 17.03Z" fill="#FFFFFF" fill-opacity="1.000000" fill-rule="evenodd"/>
</svg>
