<svg width="25.548584" height="27.500000" viewBox="0 0 25.5486 27.5" fill="none" xmlns="http://www.w3.org/2000/svg" xmlns:xlink="http://www.w3.org/1999/xlink">
	<desc>
			Created with Pixso.
	</desc>
	<defs/>
	<path id="Vector" d="M16.8218 20.949C16.9536 21.3591 17.0247 21.7961 17.0247 22.25C17.0247 24.5972 15.1218 26.5 12.7747 26.5C10.4275 26.5 8.52466 24.5972 8.52466 22.25C8.52466 21.7964 8.5957 21.3591 8.72754 20.9492M21.2744 9.56958L21.2744 10.5625C21.2744 13.843 22.5132 16.834 24.5488 19.0935C22.094 19.9998 19.5059 20.6306 16.8218 20.949C15.4946 21.1064 14.144 21.1875 12.7744 21.1875C11.405 21.1875 10.0544 21.1064 8.72754 20.9492C6.04321 20.6309 3.45508 19.9998 1 19.0935C3.0354 16.834 4.27441 13.843 4.27441 10.5625L4.27466 9.5C4.27466 4.80566 8.08032 1 12.7747 1C17.469 1 21.2747 4.80566 21.2747 9.5C21.2747 9.52319 21.2747 9.54639 21.2744 9.56958Z" stroke="#FFFFFF" stroke-opacity="1.000000" stroke-width="2.000000" stroke-linejoin="round"/>
</svg>
