<svg width="24.000000" height="24.000000" viewBox="0 0 24 24" fill="none" xmlns="http://www.w3.org/2000/svg" xmlns:xlink="http://www.w3.org/1999/xlink">
	<desc>
			Created with Pixso.
	</desc>
	<defs>
		<clipPath id="clip291_5183">
			<rect id="Icon" width="24.000000" height="24.000000" fill="white" fill-opacity="0"/>
		</clipPath>
	</defs>
	<rect id="Icon" width="24.000000" height="24.000000" fill="#FFFFFF" fill-opacity="0"/>
	<g clip-path="url(#clip291_5183)">
		<path id="Vector" d="M19 11L13 11L13 5C13 4.7348 12.8945 4.48041 12.707 4.29291C12.5195 4.10535 12.2651 4 12 4C11.7349 4 11.4805 4.10535 11.293 4.29291C11.1055 4.48041 11 4.7348 11 5L11 11L5 11C4.73486 11 4.48047 11.1053 4.29297 11.2929C4.10547 11.4804 4 11.7348 4 12C4 12.2652 4.10547 12.5196 4.29297 12.7071C4.48047 12.8947 4.73486 13 5 13L11 13L11 19C11 19.2652 11.1055 19.5196 11.293 19.7071C11.4805 19.8947 11.7349 20 12 20C12.2651 20 12.5195 19.8947 12.707 19.7071C12.8945 19.5196 13 19.2652 13 19L13 13L19 13C19.2651 13 19.5195 12.8947 19.707 12.7071C19.8945 12.5196 20 12.2652 20 12C20 11.7348 19.8945 11.4804 19.707 11.2929C19.5195 11.1053 19.2651 11 19 11Z" fill="#FFFFFF" fill-opacity="1.000000" fill-rule="nonzero"/>
	</g>
</svg>
