<svg width="21.600098" height="15.834190" viewBox="0 0 21.6001 15.8342" fill="none" xmlns="http://www.w3.org/2000/svg" xmlns:xlink="http://www.w3.org/1999/xlink">
	<desc>
			Created with Pixso.
	</desc>
	<defs>
		<filter id="filter_291_5146_dd" x="0.000000" y="0.000000" width="21.600098" height="15.834190" filterUnits="userSpaceOnUse" color-interpolation-filters="sRGB">
			<feFlood flood-opacity="0" result="BackgroundImageFix"/>
			<feGaussianBlur in="BackgroundImage" stdDeviation="4"/>
			<feComposite in2="SourceAlpha" operator="in" result="effect_backgroundBlur_1"/>
			<feBlend mode="normal" in="SourceGraphic" in2="effect_backgroundBlur_1" result="shape"/>
		</filter>
	</defs>
	<g filter="url(#filter_291_5146_dd)">
		<mask id="mask_291_5146" fill="white">
			<path id="Union" d="M10.0913 2.57351L11.5151 2.57351C11.5151 2.3501 11.5166 2.13161 11.5181 1.91611C11.5215 1.49381 11.5244 1.08297 11.5151 0.668972C11.5005 0.29525 11.1987 0.0221481 10.8394 0.000587463C10.4795 -0.0137863 10.1201 0.237755 10.0986 0.597103C10.0786 1.05401 10.083 1.51093 10.0874 1.97274C10.0894 2.17195 10.0913 2.37208 10.0913 2.57351ZM0.00341797 11.8734C-0.0258789 11.0782 0.196777 10.3353 0.42041 9.59056C0.47168 9.41992 0.522949 9.24918 0.571289 9.07769C0.866211 8.02121 1.18262 6.96473 1.4917 5.90825C2.31152 3.05503 5.9209 1.88356 8.12842 3.88153C8.22168 3.96778 8.37988 4.01809 8.50928 4.01809Q9.67334 4.02362 10.8374 4.02347L10.8638 4.02347Q11.9517 4.02326 13.0396 4.01809C13.1543 4.01809 13.3057 3.96778 13.3916 3.88872C15.5415 1.9195 19.0723 3.0191 19.9492 5.76451C20.5103 7.51812 21.0137 9.28611 21.481 11.0685C22.02 13.1024 20.6685 15.2513 18.6191 15.7256C16.915 16.1209 15.0601 15.165 14.3193 13.4905C13.8735 12.4915 13.1831 11.7656 12.1118 11.4997C11.1338 11.2625 10.1343 11.2553 9.1709 11.6003C8.22168 11.9381 7.57471 12.6208 7.17188 13.548C6.7334 14.5685 5.97852 15.28 4.92139 15.6322C2.5415 16.4227 0.161621 14.8057 0.00341797 12.3046C-0.00146484 12.2088 0 12.113 0.00146484 12.0171C0.00244141 11.9692 0.00341797 11.9213 0.00341797 11.8734ZM5.04346 7.35282C4.95166 7.35282 4.86523 7.35197 4.78174 7.35114C4.62305 7.34957 4.4751 7.34811 4.32471 7.35282C3.89307 7.37438 3.59131 7.69061 3.60547 8.08589C3.61279 8.4668 3.91455 8.76146 4.33203 8.78302C4.47754 8.78772 4.62305 8.78627 4.78125 8.78471C4.86475 8.78388 4.95166 8.78302 5.04346 8.78302L5.04346 9.42266C5.05078 9.91137 5.3457 10.2276 5.77002 10.2204C6.18701 10.2132 6.46729 9.90418 6.47461 9.43703C6.47949 9.30006 6.47803 9.1631 6.47607 9.01797C6.47559 8.94226 6.47461 8.86433 6.47461 8.78302C6.5708 8.78302 6.65869 8.78391 6.74219 8.78475L6.74219 8.78475C6.89551 8.7863 7.03223 8.78768 7.17188 8.78302C7.60352 8.76865 7.9126 8.4668 7.9126 8.06433C7.9126 7.66904 7.60352 7.3672 7.17188 7.35282C7.0249 7.34808 6.87793 7.34959 6.72461 7.35117L6.72461 7.35117C6.64551 7.35199 6.56494 7.35282 6.48193 7.35282C6.48193 7.26312 6.48242 7.17861 6.4834 7.09748C6.48486 6.9446 6.48633 6.80373 6.48193 6.66288C6.46729 6.22447 6.16553 5.91544 5.77002 5.91544C5.36719 5.90825 5.06543 6.21729 5.05078 6.6485C5.04004 6.80744 5.0415 6.96247 5.04248 7.14526C5.04297 7.21044 5.04346 7.27915 5.04346 7.35282ZM15.2109 8.02839C14.981 8.25837 14.8154 8.4093 14.6572 8.5746C14.3193 8.92676 14.3047 9.35798 14.6143 9.65983C14.916 9.95449 15.3262 9.93293 15.6709 9.60233C15.8438 9.43703 15.9946 9.25736 16.2246 9.013C16.4189 9.24298 16.5625 9.43703 16.728 9.60952C17.0591 9.94012 17.4761 9.95449 17.7778 9.65983C18.0728 9.37235 18.0728 8.94113 17.749 8.60335C17.5767 8.42368 17.3823 8.27275 17.1597 8.06433C17.4038 7.84872 17.5908 7.69779 17.7563 7.52531C18.0728 7.19471 18.0801 6.76349 17.7778 6.46883C17.4902 6.18854 17.0732 6.19572 16.7495 6.50476C16.5698 6.67725 16.4116 6.8713 16.2178 7.08691C16.0234 6.87848 15.8794 6.72037 15.7285 6.56945C15.3618 6.20291 14.9307 6.16698 14.6211 6.47601C14.312 6.78505 14.3335 7.21627 14.7002 7.5828C14.8442 7.72654 15.0166 7.85591 15.2109 8.02839Z" clip-rule="evenodd" fill="" fill-opacity="1.000000" fill-rule="evenodd"/>
		</mask>
		<path id="Union" d="M10.0913 2.57351L11.5151 2.57351C11.5151 2.3501 11.5166 2.13161 11.5181 1.91611C11.5215 1.49381 11.5244 1.08297 11.5151 0.668972C11.5005 0.29525 11.1987 0.0221481 10.8394 0.000587463C10.4795 -0.0137863 10.1201 0.237755 10.0986 0.597103C10.0786 1.05401 10.083 1.51093 10.0874 1.97274C10.0894 2.17195 10.0913 2.37208 10.0913 2.57351ZM0.00341797 11.8734C-0.0258789 11.0782 0.196777 10.3353 0.42041 9.59056C0.47168 9.41992 0.522949 9.24918 0.571289 9.07769C0.866211 8.02121 1.18262 6.96473 1.4917 5.90825C2.31152 3.05503 5.9209 1.88356 8.12842 3.88153C8.22168 3.96778 8.37988 4.01809 8.50928 4.01809Q9.67334 4.02362 10.8374 4.02347L10.8638 4.02347Q11.9517 4.02326 13.0396 4.01809C13.1543 4.01809 13.3057 3.96778 13.3916 3.88872C15.5415 1.9195 19.0723 3.0191 19.9492 5.76451C20.5103 7.51812 21.0137 9.28611 21.481 11.0685C22.02 13.1024 20.6685 15.2513 18.6191 15.7256C16.915 16.1209 15.0601 15.165 14.3193 13.4905C13.8735 12.4915 13.1831 11.7656 12.1118 11.4997C11.1338 11.2625 10.1343 11.2553 9.1709 11.6003C8.22168 11.9381 7.57471 12.6208 7.17188 13.548C6.7334 14.5685 5.97852 15.28 4.92139 15.6322C2.5415 16.4227 0.161621 14.8057 0.00341797 12.3046C-0.00146484 12.2088 0 12.113 0.00146484 12.0171C0.00244141 11.9692 0.00341797 11.9213 0.00341797 11.8734ZM5.04346 7.35282C4.95166 7.35282 4.86523 7.35197 4.78174 7.35114C4.62305 7.34957 4.4751 7.34811 4.32471 7.35282C3.89307 7.37438 3.59131 7.69061 3.60547 8.08589C3.61279 8.4668 3.91455 8.76146 4.33203 8.78302C4.47754 8.78772 4.62305 8.78627 4.78125 8.78471C4.86475 8.78388 4.95166 8.78302 5.04346 8.78302L5.04346 9.42266C5.05078 9.91137 5.3457 10.2276 5.77002 10.2204C6.18701 10.2132 6.46729 9.90418 6.47461 9.43703C6.47949 9.30006 6.47803 9.1631 6.47607 9.01797C6.47559 8.94226 6.47461 8.86433 6.47461 8.78302C6.5708 8.78302 6.65869 8.78391 6.74219 8.78475L6.74219 8.78475C6.89551 8.7863 7.03223 8.78768 7.17188 8.78302C7.60352 8.76865 7.9126 8.4668 7.9126 8.06433C7.9126 7.66904 7.60352 7.3672 7.17188 7.35282C7.0249 7.34808 6.87793 7.34959 6.72461 7.35117L6.72461 7.35117C6.64551 7.35199 6.56494 7.35282 6.48193 7.35282C6.48193 7.26312 6.48242 7.17861 6.4834 7.09748C6.48486 6.9446 6.48633 6.80373 6.48193 6.66288C6.46729 6.22447 6.16553 5.91544 5.77002 5.91544C5.36719 5.90825 5.06543 6.21729 5.05078 6.6485C5.04004 6.80744 5.0415 6.96247 5.04248 7.14526C5.04297 7.21044 5.04346 7.27915 5.04346 7.35282ZM15.2109 8.02839C14.981 8.25837 14.8154 8.4093 14.6572 8.5746C14.3193 8.92676 14.3047 9.35798 14.6143 9.65983C14.916 9.95449 15.3262 9.93293 15.6709 9.60233C15.8438 9.43703 15.9946 9.25736 16.2246 9.013C16.4189 9.24298 16.5625 9.43703 16.728 9.60952C17.0591 9.94012 17.4761 9.95449 17.7778 9.65983C18.0728 9.37235 18.0728 8.94113 17.749 8.60335C17.5767 8.42368 17.3823 8.27275 17.1597 8.06433C17.4038 7.84872 17.5908 7.69779 17.7563 7.52531C18.0728 7.19471 18.0801 6.76349 17.7778 6.46883C17.4902 6.18854 17.0732 6.19572 16.7495 6.50476C16.5698 6.67725 16.4116 6.8713 16.2178 7.08691C16.0234 6.87848 15.8794 6.72037 15.7285 6.56945C15.3618 6.20291 14.9307 6.16698 14.6211 6.47601C14.312 6.78505 14.3335 7.21627 14.7002 7.5828C14.8442 7.72654 15.0166 7.85591 15.2109 8.02839Z" clip-rule="evenodd" fill="#E60000" fill-opacity="1.000000" fill-rule="evenodd" mask="url(#mask_291_5146)"/>
	</g>
	<path id="Union" d="M11.5151 2.57351L10.0913 2.57351C10.0913 2.37208 10.0894 2.17195 10.0874 1.97274L10.0874 1.9701C10.083 1.50918 10.0787 1.05314 10.0986 0.597103C10.1201 0.237755 10.4795 -0.0137863 10.8394 0.000587463C11.1987 0.0221481 11.5005 0.29525 11.5151 0.668972C11.5244 1.08297 11.5215 1.49381 11.5181 1.91611C11.5166 2.13161 11.5151 2.3501 11.5151 2.57351ZM0.42041 9.59056C0.196777 10.3353 -0.0258789 11.0782 0.00341797 11.8734C0.00341797 11.9213 0.00244141 11.9692 0.00146484 12.0171L0.0014648 12.0171C0 12.113 -0.0014648 12.2088 0.00341797 12.3046C0.161621 14.8057 2.5415 16.4227 4.92139 15.6322C5.97852 15.28 6.7334 14.5685 7.17188 13.548C7.57471 12.6208 8.22168 11.9381 9.1709 11.6003C10.1343 11.2553 11.1338 11.2625 12.1118 11.4997C13.1831 11.7656 13.8735 12.4915 14.3193 13.4905C15.0601 15.165 16.915 16.1209 18.6191 15.7256C20.6685 15.2513 22.02 13.1024 21.481 11.0685C21.0137 9.28611 20.5103 7.51812 19.9492 5.76451C19.0723 3.0191 15.5415 1.9195 13.3916 3.88872C13.3057 3.96778 13.1543 4.01809 13.0396 4.01809Q11.9517 4.02326 10.8638 4.02347L10.8374 4.02347L10.775 4.02348Q9.64213 4.02348 8.50928 4.01809C8.37988 4.01809 8.22168 3.96778 8.12842 3.88153C5.9209 1.88356 2.31152 3.05503 1.4917 5.90825C1.18262 6.96473 0.866211 8.02121 0.571289 9.07769C0.522949 9.24918 0.47168 9.41992 0.42041 9.59056ZM1.00342 11.855L1.00244 11.8366Q0.987793 11.4296 1.09521 10.9201Q1.16699 10.5825 1.37842 9.87807L1.37842 9.87805Q1.4834 9.52839 1.53369 9.34855Q1.75342 8.56092 2.21826 6.98298Q2.37402 6.45401 2.45117 6.18913Q2.56946 5.77759 2.78406 5.42461Q2.98315 5.09714 3.26514 4.82007Q3.51908 4.57047 3.8135 4.38518Q4.17067 4.1604 4.5874 4.03028Q5.11385 3.86599 5.63369 3.88478Q5.86118 3.893 6.0874 3.93628Q6.42918 4.00165 6.73601 4.14294Q7.12483 4.32199 7.45752 4.62294Q7.67188 4.82095 7.97803 4.92704Q8.19106 5.00087 8.40796 5.01483Q8.45851 5.01809 8.50928 5.01809L10.8354 5.02347L10.8638 5.02347L10.8662 5.02346L13.042 5.01808Q13.3013 5.01809 13.5625 4.92484Q13.8457 4.82372 14.0538 4.63834Q14.0606 4.63223 14.0674 4.62603Q14.3878 4.33252 14.763 4.15497Q15.0632 4.01294 15.3984 3.94511Q15.6131 3.90166 15.8295 3.89039Q16.3424 3.86367 16.8647 4.01778Q17.272 4.1379 17.6242 4.34954Q17.9173 4.52564 18.1724 4.76511Q18.4813 5.05531 18.6944 5.40407Q18.8835 5.71343 18.9971 6.06888Q19.77 8.48709 20.5137 11.3221Q20.574 11.5491 20.5924 11.7795Q20.6179 12.0977 20.5635 12.4223Q20.5366 12.5821 20.4919 12.7368Q20.3836 13.1113 20.1704 13.4555Q19.9942 13.7401 19.7655 13.9732Q19.6026 14.1392 19.4131 14.2792Q19.1172 14.4974 18.7867 14.6287Q18.5959 14.7045 18.3936 14.7514Q18.2908 14.7752 18.1867 14.7901Q17.8369 14.84 17.4727 14.7885Q17.3759 14.7748 17.2805 14.7543Q16.9137 14.6755 16.5684 14.4964Q16.3462 14.3813 16.149 14.2329Q15.9561 14.0878 15.7871 13.9109Q15.5725 13.6863 15.4134 13.4276Q15.3125 13.2637 15.2339 13.086Q14.8008 12.1157 14.1343 11.4906Q13.833 11.2082 13.4878 10.9979Q12.9697 10.6822 12.3525 10.5291Q10.815 10.1562 9.4411 10.4792Q9.13344 10.5516 8.83398 10.6588Q8.27475 10.8578 7.80673 11.1866Q7.51671 11.3903 7.26172 11.6439Q6.64062 12.2611 6.25488 13.1496Q5.98888 13.7686 5.53063 14.1659Q5.13845 14.5059 4.60547 14.6834Q4.13264 14.8404 3.66188 14.8345Q3.48656 14.8322 3.31152 14.8074Q3.00067 14.7633 2.71594 14.6522Q2.44073 14.5448 2.18994 14.3749Q1.94433 14.2085 1.74546 13.998Q1.5308 13.7707 1.37061 13.492Q1.28206 13.3383 1.21436 13.1759Q1.03264 12.74 1.00098 12.2415Q0.999023 12.1921 1.00146 12.0338Q1.00342 11.9296 1.00342 11.8734L1.00342 11.855ZM4.27756 7.35639C3.87127 7.39778 3.59183 7.70516 3.60547 8.08589C3.61279 8.4668 3.91455 8.76146 4.33203 8.78302C4.47737 8.78771 4.6227 8.78628 4.78069 8.78472L4.78125 8.78471C4.86475 8.78388 4.95166 8.78302 5.04346 8.78302L5.04346 9.42266C5.04393 9.45434 5.04562 9.4853 5.04846 9.51549C5.08956 9.95101 5.37321 10.2271 5.77002 10.2204C6.16038 10.2137 6.43093 9.94242 6.4699 9.52456C6.47256 9.49605 6.47414 9.46687 6.47461 9.43703C6.47949 9.30006 6.47803 9.1631 6.47607 9.01797C6.47559 8.94226 6.47461 8.86433 6.47461 8.78302C6.5708 8.78302 6.65869 8.78391 6.74219 8.78475C6.89551 8.7863 7.03223 8.78768 7.17188 8.78302C7.19723 8.78218 7.22217 8.78034 7.24664 8.77755C7.63876 8.73283 7.9126 8.44315 7.9126 8.06433C7.9126 7.69107 7.637 7.40113 7.24286 7.35787C7.2196 7.35532 7.19593 7.35362 7.17188 7.35282C7.02491 7.34808 6.87795 7.34959 6.72465 7.35117L6.72461 7.35117C6.64551 7.35199 6.56494 7.35282 6.48193 7.35282C6.48193 7.26312 6.48242 7.17861 6.4834 7.09748L6.48348 7.08864C6.48492 6.93916 6.48624 6.80101 6.48193 6.66288C6.4811 6.63805 6.47935 6.61363 6.47672 6.58966C6.4328 6.19046 6.14313 5.91544 5.77002 5.91544C5.36719 5.90825 5.06543 6.21729 5.05078 6.6485C5.04972 6.66415 5.04878 6.67976 5.04795 6.69536C5.04074 6.83033 5.04149 6.96474 5.04233 7.11814C5.04238 7.12711 5.04243 7.13615 5.04248 7.14526C5.04297 7.21044 5.04346 7.27915 5.04346 7.35282C4.95166 7.35282 4.86523 7.35197 4.78174 7.35114C4.62305 7.34957 4.4751 7.34811 4.32471 7.35282C4.30881 7.35362 4.29309 7.35481 4.27756 7.35639ZM7.45694 6.37812Q7.5719 6.39722 7.68265 6.43042Q7.76586 6.45537 7.84668 6.48827Q8.04209 6.56781 8.20858 6.68758Q8.30874 6.75963 8.39844 6.84625Q8.53025 6.97327 8.62955 7.12199Q8.71601 7.25149 8.77783 7.39745Q8.83196 7.52478 8.86435 7.65741Q8.9126 7.85498 8.9126 8.06433Q8.9126 8.28304 8.86081 8.48872Q8.82967 8.61242 8.77979 8.73141Q8.71414 8.88744 8.62094 9.02477Q8.52558 9.16529 8.40137 9.28624Q8.31091 9.37415 8.20969 9.44717Q8.04322 9.56727 7.84766 9.64705Q7.77181 9.67806 7.69379 9.70202Q7.57323 9.73905 7.4475 9.75927Q7.41924 9.93079 7.36182 10.0916Q7.27791 10.3268 7.13818 10.5222Q7.08276 10.5997 7.01855 10.6709Q6.90023 10.8022 6.76016 10.9034Q6.61934 11.0052 6.45654 11.0765Q6.37567 11.112 6.29202 11.1387Q6.05089 11.2157 5.78662 11.2203Q5.52995 11.2246 5.29256 11.1591Q5.19216 11.1314 5.09521 11.0911Q4.9304 11.0228 4.78721 10.9233Q4.63854 10.82 4.51318 10.6832Q4.45124 10.6156 4.39721 10.5421Q4.24807 10.3394 4.15918 10.0924Q4.10214 9.93338 4.07314 9.75979Q3.94932 9.73981 3.83046 9.70356Q3.74173 9.67651 3.65576 9.6404Q3.46697 9.56105 3.30552 9.44399Q3.20808 9.37334 3.12061 9.28896Q2.99279 9.1655 2.89522 9.02154Q2.81014 8.89602 2.74805 8.75492Q2.64453 8.51935 2.61655 8.27513Q2.60784 8.19911 2.60645 8.12225Q2.59871 7.91622 2.6385 7.71981Q2.66656 7.58126 2.71826 7.44751Q2.77797 7.29313 2.86471 7.15583Q2.95744 7.00906 3.08105 6.88182Q3.17167 6.78867 3.27409 6.71111Q3.43602 6.58848 3.62744 6.5048Q3.83755 6.4128 4.07405 6.37567Q4.09421 6.24917 4.13141 6.12789Q4.15561 6.04898 4.18701 5.97229Q4.26889 5.77262 4.39262 5.60358Q4.46441 5.50549 4.55029 5.41772Q4.6784 5.28719 4.82788 5.18927Q4.96155 5.10171 5.1123 5.04023Q5.33335 4.95013 5.56157 4.92494Q5.66506 4.91351 5.77002 4.91544Q5.98381 4.91544 6.18506 4.96565Q6.31385 4.99778 6.4375 5.05047Q6.58775 5.11439 6.72044 5.20424Q6.86589 5.30272 6.99023 5.43235Q7.07395 5.51959 7.144 5.61669Q7.26681 5.78691 7.34766 5.98741Q7.37727 6.06088 7.40039 6.13634Q7.43667 6.25478 7.45694 6.37812ZM14.5022 7.32277C14.5502 7.41135 14.6161 7.49877 14.7002 7.5828C14.8442 7.72654 15.0166 7.85591 15.2109 8.02839C14.981 8.25837 14.8154 8.4093 14.6572 8.5746C14.6025 8.63164 14.5562 8.69076 14.5185 8.75107C14.3231 9.06306 14.3548 9.40687 14.6143 9.65983C14.8723 9.91182 15.2097 9.93254 15.5176 9.72648C15.5697 9.69159 15.621 9.6502 15.6709 9.60233C15.8438 9.43703 15.9946 9.25736 16.2246 9.013C16.4189 9.24298 16.5625 9.43703 16.728 9.60952C16.7844 9.66586 16.8434 9.71301 16.9038 9.75102C17.1979 9.93604 17.5275 9.90428 17.7778 9.65983C18.0271 9.41682 18.0657 9.0711 17.8761 8.76593C17.8414 8.71009 17.7991 8.6556 17.749 8.60335C17.5767 8.42368 17.3823 8.27275 17.1597 8.06433C17.4038 7.84872 17.5908 7.69779 17.7563 7.52531C17.8045 7.47495 17.8456 7.42226 17.8794 7.36808C18.0678 7.06651 18.034 6.71861 17.7778 6.46883C17.5387 6.2358 17.2102 6.20147 16.9201 6.37412C16.8613 6.40913 16.8041 6.45266 16.7495 6.50476C16.5698 6.67725 16.4116 6.8713 16.2178 7.08691C16.0234 6.87848 15.8794 6.72037 15.7285 6.56945C15.6547 6.49567 15.5783 6.43528 15.5008 6.38841C15.1932 6.20242 14.8684 6.22918 14.6211 6.47601C14.3829 6.71421 14.341 7.02498 14.5022 7.32277ZM16.2017 5.65743Q16.0585 5.5486 15.9038 5.46851Q15.6408 5.33251 15.3632 5.28822Q15.3006 5.27823 15.2373 5.27291Q15.0377 5.25614 14.8455 5.28631Q14.6775 5.31269 14.5151 5.37493Q14.4294 5.40779 14.3483 5.44956Q14.112 5.57131 13.9146 5.76874Q13.7137 5.96922 13.5902 6.20949Q13.5531 6.28167 13.5229 6.35744Q13.4546 6.52863 13.4262 6.70621Q13.3974 6.8864 13.4097 7.07316Q13.4148 7.15299 13.4274 7.23163Q13.4698 7.49685 13.5967 7.74857Q13.6766 7.90743 13.7871 8.05371Q13.6497 8.23072 13.5576 8.42847Q13.4483 8.66353 13.4113 8.90948Q13.3972 9.00304 13.3936 9.09817Q13.3867 9.27948 13.4182 9.45389Q13.4498 9.62907 13.52 9.79729Q13.5549 9.88115 13.5983 9.96036Q13.7224 10.1868 13.9155 10.3754Q14.1157 10.5706 14.3539 10.6903Q14.4201 10.7236 14.4893 10.7511Q14.6552 10.817 14.8274 10.8453Q15.0006 10.8738 15.1802 10.8641Q15.2663 10.8595 15.3511 10.8461Q15.5989 10.8072 15.835 10.6941Q16.0236 10.6037 16.1944 10.4705Q16.3688 10.61 16.5576 10.7003Q16.7737 10.8038 17.0009 10.8441Q17.1091 10.8633 17.2197 10.8682Q17.3912 10.8757 17.557 10.8486Q17.7349 10.8195 17.9062 10.7504Q17.9855 10.7185 18.0609 10.6791Q18.2862 10.5611 18.4761 10.3756Q18.6472 10.2087 18.764 10.01Q18.8205 9.91386 18.8643 9.81026Q18.9334 9.64662 18.9661 9.47598Q18.9985 9.30698 18.9951 9.13113Q18.993 9.01593 18.9755 8.90311Q18.9409 8.67982 18.8462 8.46585Q18.8333 8.43685 18.8195 8.40833Q18.7327 8.22922 18.6074 8.06876Q18.7358 7.90582 18.8238 7.7234Q18.8374 7.69514 18.8501 7.66642Q18.9438 7.45461 18.9787 7.23353Q18.9967 7.11946 18.999 7.00292Q19.0024 6.82975 18.9709 6.66314Q18.9381 6.48889 18.8672 6.32181Q18.8278 6.22869 18.7781 6.14147Q18.6576 5.92991 18.4761 5.75308Q18.3034 5.58471 18.0998 5.47264Q18.0097 5.42309 17.9136 5.38454Q17.7518 5.31969 17.5838 5.29016Q17.4187 5.26114 17.2476 5.26624Q17.1336 5.26964 17.0221 5.28808Q16.806 5.32383 16.5991 5.41614Q16.5636 5.43196 16.5289 5.44925Q16.3562 5.53517 16.2017 5.65743Z" clip-rule="evenodd" fill="#E60000" fill-opacity="1.000000" fill-rule="evenodd"/>
</svg>
