<svg width="21.964355" height="16.080002" viewBox="0 0 21.9644 16.08" fill="none" xmlns="http://www.w3.org/2000/svg" xmlns:xlink="http://www.w3.org/1999/xlink">
	<desc>
			Created with Pixso.
	</desc>
	<defs>
		<filter id="filter_291_5136_dd" x="0.000000" y="0.000000" width="21.964355" height="16.080002" filterUnits="userSpaceOnUse" color-interpolation-filters="sRGB">
			<feFlood flood-opacity="0" result="BackgroundImageFix"/>
			<feGaussianBlur in="BackgroundImage" stdDeviation="4"/>
			<feComposite in2="SourceAlpha" operator="in" result="effect_backgroundBlur_1"/>
			<feBlend mode="normal" in="SourceGraphic" in2="effect_backgroundBlur_1" result="shape"/>
		</filter>
	</defs>
	<g filter="url(#filter_291_5136_dd)">
		<mask id="mask_291_5136" fill="white">
			<path id="Union" d="M18.7993 0L3.19971 0C2.4082 0 2.18848 0.219269 2.18848 0.986725L2.18848 9.246C2.18848 10.0061 2.41553 10.2327 3.16309 10.2327L18.7993 10.2327C19.5469 10.2327 19.7739 10.0061 19.7739 9.246L19.7739 0.986725C19.7739 0.226578 19.5469 0 18.7993 0ZM0.942871 16.08L21.0269 16.08C21.2026 16.08 21.3936 16.0727 21.562 16.0142C21.9502 15.8827 22.0674 15.5611 21.8696 15.2029C21.1733 13.9311 20.4702 12.6667 19.7666 11.4022C19.5981 11.1098 19.3564 10.9636 19.0195 10.9636L2.93604 10.9636C2.59863 10.9636 2.35693 11.1098 2.1958 11.4022C1.49219 12.6667 0.789062 13.9311 0.0927734 15.2029C-0.10498 15.5611 0.0195312 15.8827 0.407715 16.0142C0.569336 16.0727 0.759766 16.08 0.942871 16.08ZM11.4355 14.6198C11.2817 14.619 11.1279 14.6182 10.9741 14.6182C10.8203 14.6182 10.6665 14.619 10.5127 14.6198C10.2041 14.6214 9.89453 14.6231 9.58154 14.6182C9.11279 14.6109 8.79053 14.3185 8.7832 13.9019C8.77588 13.4707 9.10547 13.1637 9.59619 13.1637C10.5195 13.1564 11.4502 13.1564 12.3735 13.1637C12.8423 13.171 13.1646 13.4633 13.1719 13.88C13.1792 14.3039 12.8496 14.6109 12.3589 14.6182C12.0508 14.623 11.7432 14.6214 11.4355 14.6198Z" clip-rule="evenodd" fill="" fill-opacity="1.000000" fill-rule="evenodd"/>
		</mask>
		<path id="Union" d="M18.7993 0L3.19971 0C2.4082 0 2.18848 0.219269 2.18848 0.986725L2.18848 9.246C2.18848 10.0061 2.41553 10.2327 3.16309 10.2327L18.7993 10.2327C19.5469 10.2327 19.7739 10.0061 19.7739 9.246L19.7739 0.986725C19.7739 0.226578 19.5469 0 18.7993 0ZM0.942871 16.08L21.0269 16.08C21.2026 16.08 21.3936 16.0727 21.562 16.0142C21.9502 15.8827 22.0674 15.5611 21.8696 15.2029C21.1733 13.9311 20.4702 12.6667 19.7666 11.4022C19.5981 11.1098 19.3564 10.9636 19.0195 10.9636L2.93604 10.9636C2.59863 10.9636 2.35693 11.1098 2.1958 11.4022C1.49219 12.6667 0.789062 13.9311 0.0927734 15.2029C-0.10498 15.5611 0.0195312 15.8827 0.407715 16.0142C0.569336 16.0727 0.759766 16.08 0.942871 16.08ZM11.4355 14.6198C11.2817 14.619 11.1279 14.6182 10.9741 14.6182C10.8203 14.6182 10.6665 14.619 10.5127 14.6198C10.2041 14.6214 9.89453 14.6231 9.58154 14.6182C9.11279 14.6109 8.79053 14.3185 8.7832 13.9019C8.77588 13.4707 9.10547 13.1637 9.59619 13.1637C10.5195 13.1564 11.4502 13.1564 12.3735 13.1637C12.8423 13.171 13.1646 13.4633 13.1719 13.88C13.1792 14.3039 12.8496 14.6109 12.3589 14.6182C12.0508 14.623 11.7432 14.6214 11.4355 14.6198Z" clip-rule="evenodd" fill="#E60000" fill-opacity="1.000000" fill-rule="evenodd" mask="url(#mask_291_5136)"/>
	</g>
	<path id="Union" d="M19.5551 10.036C19.7142 9.88544 19.7739 9.63592 19.7739 9.246L19.7739 0.986725C19.7739 0.226578 19.5469 0 18.7993 0L3.19971 0C2.4082 0 2.18848 0.219269 2.18848 0.986725L2.18848 9.246C2.18848 9.63454 2.2478 9.88368 2.40562 10.0344C2.55657 10.1786 2.79763 10.2327 3.16309 10.2327L18.7993 10.2327C19.1634 10.2327 19.404 10.179 19.5551 10.036ZM19.5553 11.1433C19.4119 11.0235 19.2352 10.9636 19.0195 10.9636L2.93604 10.9636C2.72074 10.9636 2.54441 11.0232 2.40311 11.1422C2.32298 11.2097 2.25411 11.2964 2.1958 11.4022C1.49219 12.6667 0.789062 13.9311 0.0927734 15.2029C-0.10498 15.5611 0.0195312 15.8827 0.407715 16.0142C0.569336 16.0727 0.759766 16.08 0.942871 16.08L21.0269 16.08C21.2026 16.08 21.3936 16.0727 21.562 16.0142C21.9502 15.8827 22.0674 15.5611 21.8696 15.2029C21.1733 13.9311 20.4702 12.6667 19.7666 11.4022C19.706 11.297 19.6359 11.2107 19.5553 11.1433ZM18.7739 1L3.19971 1L3.18848 1.00002L3.18848 9.23273L18.7739 9.23273L18.7739 1ZM0.735906 15.0698L0.735692 15.0697L0.734863 15.0696L0.735906 15.0698ZM8.26015 15.08L1.30368 15.08L3.02815 11.9636L18.9344 11.9636L20.6586 15.08L13.6926 15.08Q13.7961 14.9749 13.8782 14.8551Q13.9717 14.7189 14.0376 14.5637Q14.0859 14.4499 14.1168 14.3316Q14.176 14.1053 14.1719 13.8624Q14.1676 13.621 14.1018 13.3978Q14.0697 13.2889 14.0229 13.1844Q13.9541 13.0308 13.8581 12.8965Q13.7528 12.7491 13.6147 12.6249Q13.5386 12.5565 13.4555 12.4978Q13.2642 12.3629 13.0361 12.2801Q12.7305 12.1691 12.3774 12.1637L10.9756 12.1582L9.59619 12.1637Q9.26166 12.1637 8.9607 12.2642Q8.94318 12.27 8.92578 12.2762Q8.6879 12.3609 8.49021 12.5019Q8.40548 12.5623 8.32812 12.6331Q8.18857 12.7607 8.08332 12.9122Q7.98456 13.0543 7.91602 13.2174Q7.87233 13.3214 7.84299 13.4293Q7.77885 13.6651 7.7832 13.9195Q7.78744 14.159 7.85254 14.3807Q7.88501 14.4913 7.93262 14.5974Q8.00084 14.7501 8.09589 14.8836Q8.16989 14.9876 8.26015 15.08ZM18.8947 11.8919L18.8942 11.8909L18.8942 11.8912L18.8931 11.8899Q18.8937 11.8907 18.8947 11.8919ZM10.9741 14.6182C11.1279 14.6182 11.2817 14.619 11.4355 14.6198C11.7432 14.6214 12.0508 14.623 12.3589 14.6182C12.8496 14.6109 13.1792 14.3039 13.1719 13.88C13.1646 13.4633 12.8423 13.171 12.3735 13.1637C11.4502 13.1564 10.5195 13.1564 9.59619 13.1637C9.10547 13.1637 8.77588 13.4707 8.7832 13.9019C8.79053 14.3185 9.11279 14.6109 9.58154 14.6182C9.89453 14.6231 10.2041 14.6214 10.5127 14.6198C10.6665 14.619 10.8203 14.6182 10.9741 14.6182ZM3.07487 11.8792L3.07568 11.8782L3.07487 11.8792Z" clip-rule="evenodd" fill="#E60000" fill-opacity="1.000000" fill-rule="evenodd"/>
</svg>
