<svg width="11.792969" height="21.603394" viewBox="0 0 11.793 21.6034" fill="none" xmlns="http://www.w3.org/2000/svg" xmlns:xlink="http://www.w3.org/1999/xlink">
	<desc>
			Created with Pixso.
	</desc>
	<defs>
		<filter id="filter_291_5108_dd" x="0.000000" y="0.000000" width="11.792969" height="21.603394" filterUnits="userSpaceOnUse" color-interpolation-filters="sRGB">
			<feFlood flood-opacity="0" result="BackgroundImageFix"/>
			<feGaussianBlur in="BackgroundImage" stdDeviation="4"/>
			<feComposite in2="SourceAlpha" operator="in" result="effect_backgroundBlur_1"/>
			<feBlend mode="normal" in="SourceGraphic" in2="effect_backgroundBlur_1" result="shape"/>
		</filter>
	</defs>
	<g filter="url(#filter_291_5108_dd)">
		<path id="Vector" d="M0.00292969 10.7983C0.00292969 8.01233 -0.00390625 5.21954 0.00292969 2.43353C0.00292969 1.28674 0.583008 0.450256 1.60156 0.119751C1.84473 0.0388184 2.10791 0.00506592 2.36426 0.00506592C4.71826 -0.00170898 7.07275 -0.00170898 9.41992 0.00506592C10.7896 0.0117798 11.7881 1.00342 11.7881 2.36609C11.7944 7.99207 11.7944 13.6113 11.7881 19.2373C11.7881 20.5999 10.7896 21.5983 9.42676 21.5983C7.09961 21.605 4.77246 21.605 2.44482 21.5983C0.987793 21.5983 0.0166016 20.6404 0.00976562 19.1699C-0.00390625 16.3771 0.00292969 13.5911 0.00292969 10.7983ZM5.89893 1.96136C5.43994 1.96136 4.98145 1.96136 4.51611 1.96136C4.15186 1.96808 3.94922 2.13672 3.94238 2.43353C3.93555 2.73712 4.12451 2.94623 4.47559 2.94623C5.41992 2.95972 6.35742 2.95972 7.30176 2.94623C7.63916 2.93945 7.86865 2.71014 7.85498 2.43353C7.8418 2.15021 7.61914 1.96136 7.2749 1.96136C6.81641 1.96136 6.35742 1.96136 5.89893 1.96136ZM5.89893 17.6858C5.3457 17.6858 4.90723 18.1243 4.91406 18.6639C4.9209 19.2036 5.37256 19.642 5.91211 19.6353C6.43848 19.6285 6.86328 19.1968 6.86328 18.6639C6.87012 18.104 6.45215 17.6858 5.89893 17.6858Z" fill="#E60000" fill-opacity="1.000000" fill-rule="nonzero"/>
	</g>
	<path id="Vector" d="M0.00292969 10.7983C0.00292969 9.86987 0.00244141 8.94073 0.00146484 8.01129C0 6.15173 -0.00146484 4.29114 0.00292969 2.43353C0.00292969 1.28674 0.583008 0.450256 1.60156 0.119751C1.84473 0.0388184 2.10791 0.00506592 2.36426 0.00506592C4.71826 -0.00170898 7.07275 -0.00170898 9.41992 0.00506592C10.7896 0.0117798 11.7881 1.00342 11.7881 2.36609C11.7944 7.99207 11.7944 13.6113 11.7881 19.2373C11.7881 20.5999 10.7896 21.5983 9.42676 21.5983Q7.646 21.6035 5.86475 21.6034L5.81641 21.6034Q4.13086 21.6032 2.44482 21.5983C0.987793 21.5983 0.0166016 20.6404 0.00976562 19.1699C-0.000488281 17.0755 0.000976562 14.9849 0.00195312 12.8925C0.00244141 12.1947 0.00292969 11.4967 0.00292969 10.7983ZM4.11084 1.00507L2.36426 1.00507Q2.10791 1.00507 1.91064 1.07092Q1.53027 1.19421 1.30957 1.45325Q1.00293 1.81274 1.00293 2.43353L1.00293 2.43414L1.00049 6.61658L1.00293 10.7987L1.00146 14.9827L1.00977 19.1652Q1.0127 19.7878 1.3208 20.1528Q1.35303 20.191 1.38867 20.2263Q1.42432 20.2621 1.46338 20.2946Q1.82861 20.5983 2.44629 20.5983L5.54004 20.6027Q5.53564 20.6019 5.53174 20.6011Q5.33691 20.5641 5.1499 20.4873Q4.98096 20.418 4.83008 20.3211Q4.66211 20.2134 4.51611 20.0715Q4.36816 19.9277 4.25488 19.7603Q4.15527 19.6137 4.08252 19.4492Q4.00049 19.2639 3.9585 19.0701Q3.9165 18.8775 3.91406 18.6764Q3.91113 18.4602 3.9541 18.2534Q3.9917 18.0723 4.06445 17.8984Q4.13525 17.7283 4.23486 17.577Q4.34521 17.4088 4.49121 17.2637Q4.62451 17.1308 4.77783 17.0271Q4.94043 16.9169 5.12549 16.8397Q5.2876 16.7722 5.45654 16.7343Q5.67236 16.6857 5.89893 16.6857Q6.16162 16.6857 6.4082 16.7496Q6.53809 16.7833 6.66357 16.8347Q6.86035 16.9155 7.03125 17.0339Q7.17578 17.1341 7.30176 17.2612Q7.42773 17.3888 7.52686 17.5349Q7.64355 17.7072 7.72266 17.9053Q7.80029 18.1003 7.83496 18.3027Q7.86572 18.4805 7.86328 18.6639Q7.86328 18.8751 7.82031 19.0772Q7.78271 19.254 7.71191 19.4237Q7.63965 19.5973 7.53809 19.7516Q7.43408 19.9095 7.29932 20.0471Q7.15918 20.1898 6.99707 20.2994Q6.84961 20.3994 6.68359 20.4719Q6.51123 20.5472 6.33105 20.5878Q6.29395 20.5961 6.25684 20.603L9.42676 20.5983Q9.73682 20.5983 9.99707 20.4935Q10.168 20.4246 10.3066 20.3148Q10.3613 20.2714 10.4111 20.2217Q10.4609 20.1719 10.5044 20.1171Q10.6143 19.9785 10.6831 19.8074Q10.7881 19.5471 10.7881 19.2367L10.793 10.8082L10.7881 2.36609Q10.7881 2.05676 10.6831 1.79779Q10.6167 1.63251 10.5112 1.49744Q10.4653 1.43866 10.4116 1.38562Q10.3701 1.34424 10.3252 1.30719Q10.1787 1.18701 9.99414 1.11285Q9.73047 1.00659 9.41992 1.00507L7.68311 1.00507Q7.87109 1.04779 8.03857 1.1322Q8.19043 1.20862 8.32471 1.31927Q8.4541 1.42572 8.55322 1.55505Q8.64111 1.66907 8.70557 1.8009Q8.75439 1.90106 8.7876 2.00623Q8.84473 2.18805 8.854 2.38483Q8.8623 2.55817 8.83154 2.72412Q8.8042 2.86969 8.74658 3.00964Q8.69434 3.13635 8.62109 3.24933Q8.52734 3.39435 8.39795 3.51666Q8.3208 3.59021 8.23438 3.65167Q8.0791 3.76245 7.89551 3.83392Q7.86914 3.84424 7.84277 3.85352Q7.59375 3.94061 7.31641 3.94611Q5.88867 3.96649 4.47559 3.94623Q4.16992 3.94623 3.90137 3.84857Q3.70557 3.77728 3.54297 3.65997Q3.44971 3.5929 3.36768 3.5108Q3.27148 3.41455 3.19629 3.30396Q3.09473 3.15411 3.03174 2.97797Q3.01953 2.94318 3.00879 2.9079Q2.93701 2.67108 2.94287 2.41083Q2.94873 2.15265 3.03223 1.92273Q3.04932 1.87555 3.06982 1.82953Q3.13721 1.67834 3.23438 1.55017Q3.33154 1.42255 3.4585 1.31769Q3.53857 1.25134 3.62646 1.19733Q3.84521 1.06299 4.11084 1.00507ZM4.58057 2.94769C4.5459 2.9472 4.51074 2.94672 4.47559 2.94623C4.12451 2.94623 3.93555 2.73712 3.94238 2.43353C3.94922 2.13672 4.15186 1.96808 4.51611 1.96136L7.2749 1.96136C7.61914 1.96136 7.8418 2.15021 7.85498 2.43353C7.86865 2.71014 7.63916 2.93945 7.30176 2.94623C7.26904 2.94672 7.23633 2.94714 7.20361 2.94757C6.32764 2.95923 5.45703 2.95929 4.58057 2.94769ZM5.89893 17.6858C5.3457 17.6858 4.90723 18.1243 4.91406 18.6639C4.9209 19.2036 5.37256 19.642 5.91211 19.6353C6.43848 19.6285 6.86328 19.1968 6.86328 18.6639C6.87012 18.104 6.45215 17.6858 5.89893 17.6858ZM4.48096 1.94629L4.47559 1.94623L4.48096 1.94629Z" fill="#E60000" fill-opacity="1.000000" fill-rule="evenodd"/>
</svg>
