<svg width="16.471680" height="21.599976" viewBox="0 0 16.4717 21.6" fill="none" xmlns="http://www.w3.org/2000/svg" xmlns:xlink="http://www.w3.org/1999/xlink">
	<desc>
			Created with Pixso.
	</desc>
	<defs>
		<filter id="filter_291_5116_dd" x="0.000000" y="0.000000" width="16.471680" height="21.599976" filterUnits="userSpaceOnUse" color-interpolation-filters="sRGB">
			<feFlood flood-opacity="0" result="BackgroundImageFix"/>
			<feGaussianBlur in="BackgroundImage" stdDeviation="4"/>
			<feComposite in2="SourceAlpha" operator="in" result="effect_backgroundBlur_1"/>
			<feBlend mode="normal" in="SourceGraphic" in2="effect_backgroundBlur_1" result="shape"/>
		</filter>
	</defs>
	<g filter="url(#filter_291_5116_dd)">
		<path id="Vector" d="M0 10.7899C0 7.90179 0 5.00696 0 2.11884C0 0.776001 0.775879 0 2.1123 0C6.19434 0 10.2769 0 14.3594 0C15.6958 0 16.4717 0.776001 16.4717 2.11884C16.4717 7.91528 16.4717 13.705 16.4717 19.5014C16.4717 20.8173 15.689 21.6 14.3799 21.6C10.2837 21.6 6.19434 21.6 2.09863 21.6C0.789551 21.6 0.00683594 20.8105 0.00683594 19.5014C0 16.5998 0 13.6915 0 10.7899ZM6.36328 19.0425C7.61816 19.0425 8.85986 19.0425 10.1016 19.0425C10.1016 18.6242 10.1016 18.2396 10.1016 17.8414C8.83984 17.8414 7.60498 17.8414 6.36328 17.8414C6.36328 18.2531 6.36328 18.6444 6.36328 19.0425Z" fill="#E60000" fill-opacity="1.000000" fill-rule="nonzero"/>
	</g>
	<path id="Vector" d="M0 10.7899L0 2.11884C0 0.776001 0.775879 0 2.1123 0L14.3594 0C15.6958 0 16.4717 0.776001 16.4717 2.11884L16.4717 19.5014C16.4717 20.8173 15.689 21.6 14.3799 21.6L2.09863 21.6C0.789551 21.6 0.00683594 20.8105 0.00683594 19.5014C0 16.5998 0 13.6915 0 10.7899ZM1 6.45972L1 2.11884Q1 1.5257 1.26318 1.26215Q1.52441 1 2.1123 1L8.91602 1L14.3594 1Q14.9473 1 15.2085 1.26215Q15.4717 1.5257 15.4717 2.11884L15.4717 19.5014Q15.4717 20.0743 15.2085 20.3379Q14.9473 20.6 14.3799 20.6L2.09863 20.6Q1.5332 20.6 1.27051 20.3362Q1.00684 20.0712 1.00684 19.5014L1.00098 15.1525L1 10.7897L1 6.45972ZM11.1016 20.0425L11.1016 16.8414L5.36328 16.8414L5.36328 20.0425L11.1016 20.0425ZM7.36328 19.0425L9.10156 19.0425L10.1016 19.0425L10.1016 17.8414L9.10156 17.8414L7.36328 17.8414L6.36328 17.8414L6.36328 19.0425L7.36328 19.0425Z" fill="#E60000" fill-opacity="1.000000" fill-rule="evenodd"/>
</svg>
