<svg width="20.773438" height="15.362427" viewBox="0 0 20.7734 15.3624" fill="none" xmlns="http://www.w3.org/2000/svg" xmlns:xlink="http://www.w3.org/1999/xlink">
	<desc>
			Created with Pixso.
	</desc>
	<defs>
		<filter id="filter_291_5125_dd" x="0.000000" y="0.000000" width="20.773438" height="15.362427" filterUnits="userSpaceOnUse" color-interpolation-filters="sRGB">
			<feFlood flood-opacity="0" result="BackgroundImageFix"/>
			<feGaussianBlur in="BackgroundImage" stdDeviation="4"/>
			<feComposite in2="SourceAlpha" operator="in" result="effect_backgroundBlur_1"/>
			<feBlend mode="normal" in="SourceGraphic" in2="effect_backgroundBlur_1" result="shape"/>
		</filter>
	</defs>
	<g filter="url(#filter_291_5125_dd)">
		<mask id="mask_291_5125" fill="white">
			<path id="Union" d="M0.00683594 10.2155L0.00683594 0.917725C0.00683594 0.281342 0.28125 0 0.931152 0L19.8491 0C20.4922 0 20.7734 0.281342 20.7734 0.911011L20.7734 10.2087C13.8491 10.2155 6.95117 10.2155 0.00683594 10.2155ZM8.91357 7.38861C10.0723 6.71875 11.1704 6.08237 12.3223 5.41922C11.1636 4.74933 10.0518 4.11298 8.91357 3.4498L8.91357 7.38861ZM17.9404 14.8844C17.7734 14.3686 17.5522 13.8729 17.3311 13.3102L17.3315 13.3102C18.2354 13.3102 19.0859 13.3102 19.9229 13.3035C20.3784 13.2968 20.7266 13.0423 20.7466 12.6336C20.7695 12.2447 20.7642 11.8526 20.7583 11.4573C20.7559 11.2806 20.7534 11.1034 20.7534 10.9255L0 10.9255L0 12.3456C0 13.0222 0.28125 13.3035 0.951172 13.3035L3.43555 13.3035C3.22803 13.826 3.03369 14.3083 2.83936 14.7906C2.75928 15.005 2.72559 15.2193 2.99365 15.3198C3.25439 15.4203 3.38184 15.2461 3.46875 15.0318C3.66992 14.5361 3.88428 14.0471 4.06494 13.5447C4.13867 13.3504 4.23926 13.3035 4.43311 13.3035Q7.5791 13.3088 10.7251 13.3085Q13.5361 13.3083 16.3467 13.3035C16.5542 13.3035 16.6416 13.3705 16.7085 13.5581C16.8823 14.0203 17.0703 14.4691 17.2578 14.9246C17.291 14.9983 17.3179 15.0652 17.3516 15.1389C17.4385 15.3332 17.6191 15.427 17.7798 15.3131C17.8872 15.2394 17.981 15.005 17.9404 14.8844ZM12.918 12.2451L10.3735 12.2451C10.0923 12.2451 9.81055 12.2444 9.52832 12.2437C8.96387 12.2422 8.39795 12.2407 7.83545 12.2451C7.60742 12.2451 7.38672 12.2183 7.37988 11.9303C7.37305 11.6356 7.59424 11.5753 7.8418 11.5753L12.9248 11.5753C13.166 11.5753 13.3936 11.6288 13.3936 11.9236C13.3936 12.2317 13.1523 12.2451 12.918 12.2451Z" clip-rule="evenodd" fill="" fill-opacity="1.000000" fill-rule="evenodd"/>
		</mask>
		<path id="Union" d="M0.00683594 10.2155L0.00683594 0.917725C0.00683594 0.281342 0.28125 0 0.931152 0L19.8491 0C20.4922 0 20.7734 0.281342 20.7734 0.911011L20.7734 10.2087C13.8491 10.2155 6.95117 10.2155 0.00683594 10.2155ZM8.91357 7.38861C10.0723 6.71875 11.1704 6.08237 12.3223 5.41922C11.1636 4.74933 10.0518 4.11298 8.91357 3.4498L8.91357 7.38861ZM17.9404 14.8844C17.7734 14.3686 17.5522 13.8729 17.3311 13.3102L17.3315 13.3102C18.2354 13.3102 19.0859 13.3102 19.9229 13.3035C20.3784 13.2968 20.7266 13.0423 20.7466 12.6336C20.7695 12.2447 20.7642 11.8526 20.7583 11.4573C20.7559 11.2806 20.7534 11.1034 20.7534 10.9255L0 10.9255L0 12.3456C0 13.0222 0.28125 13.3035 0.951172 13.3035L3.43555 13.3035C3.22803 13.826 3.03369 14.3083 2.83936 14.7906C2.75928 15.005 2.72559 15.2193 2.99365 15.3198C3.25439 15.4203 3.38184 15.2461 3.46875 15.0318C3.66992 14.5361 3.88428 14.0471 4.06494 13.5447C4.13867 13.3504 4.23926 13.3035 4.43311 13.3035Q7.5791 13.3088 10.7251 13.3085Q13.5361 13.3083 16.3467 13.3035C16.5542 13.3035 16.6416 13.3705 16.7085 13.5581C16.8823 14.0203 17.0703 14.4691 17.2578 14.9246C17.291 14.9983 17.3179 15.0652 17.3516 15.1389C17.4385 15.3332 17.6191 15.427 17.7798 15.3131C17.8872 15.2394 17.981 15.005 17.9404 14.8844ZM12.918 12.2451L10.3735 12.2451C10.0923 12.2451 9.81055 12.2444 9.52832 12.2437C8.96387 12.2422 8.39795 12.2407 7.83545 12.2451C7.60742 12.2451 7.38672 12.2183 7.37988 11.9303C7.37305 11.6356 7.59424 11.5753 7.8418 11.5753L12.9248 11.5753C13.166 11.5753 13.3936 11.6288 13.3936 11.9236C13.3936 12.2317 13.1523 12.2451 12.918 12.2451Z" clip-rule="evenodd" fill="#E60000" fill-opacity="1.000000" fill-rule="evenodd" mask="url(#mask_291_5125)"/>
	</g>
	<path id="Union" d="M0 11.2154L0 12.3456C0 13.0222 0.28125 13.3035 0.951172 13.3035L3.43555 13.3035C3.29767 13.6507 3.16561 13.9801 3.03551 14.3035C3.02802 14.3221 3.02054 14.3407 3.01307 14.3593C2.95493 14.5038 2.89714 14.6472 2.83936 14.7906C2.75928 15.005 2.72559 15.2193 2.99365 15.3198C3.25052 15.4188 3.37802 15.2512 3.46485 15.0413C3.46616 15.0381 3.46746 15.035 3.46875 15.0318C3.46936 15.0303 3.46998 15.0287 3.47059 15.0272C3.52611 14.8905 3.58262 14.7543 3.63914 14.6181C3.78687 14.2623 3.93467 13.9069 4.06494 13.5447C4.13867 13.3504 4.23926 13.3035 4.43311 13.3035Q4.4729 13.3036 4.5127 13.3037Q7.46339 13.3085 10.414 13.3085L10.7251 13.3085Q13.4901 13.3083 16.2543 13.3037Q16.3005 13.3036 16.3467 13.3035C16.5542 13.3035 16.6416 13.3705 16.7085 13.5581C16.837 13.8999 16.9733 14.2343 17.1114 14.5696C17.1601 14.6877 17.209 14.8059 17.2578 14.9246C17.291 14.9983 17.3179 15.0652 17.3516 15.1389C17.4385 15.3332 17.6191 15.427 17.7798 15.3131C17.8872 15.2394 17.981 15.005 17.9404 14.8844C17.9175 14.8136 17.8936 14.7432 17.8688 14.673C17.8661 14.6655 17.8635 14.658 17.8608 14.6505C17.8277 14.5575 17.7931 14.4648 17.7572 14.3717C17.7492 14.3509 17.7411 14.33 17.733 14.3092C17.6079 13.9882 17.4695 13.6623 17.3311 13.3102L17.3315 13.3102C17.4499 13.3102 17.5674 13.3102 17.684 13.3102C17.9289 13.3102 18.1701 13.3101 18.4086 13.3098C18.9237 13.3091 19.4257 13.3075 19.9229 13.3035C20.3784 13.2968 20.7266 13.0423 20.7466 12.6336C20.7695 12.2447 20.7642 11.8526 20.7583 11.4573C20.7572 11.3746 20.756 11.2917 20.7551 11.2087C20.7541 11.1145 20.7534 11.0201 20.7534 10.9255L0 10.9255L0 11.2154ZM1 11.9255L1 12.3035L4.91357 12.3035L4.91341 12.3039L6.4311 12.3052Q6.38438 12.1387 6.37988 11.9535Q6.37957 11.9395 6.37951 11.9255L1 11.9255ZM19.7486 12.5753Q19.7482 12.5799 19.748 12.5845Q19.7483 12.58 19.7486 12.5753ZM20.7734 9.92551L20.7734 0.911011C20.7734 0.281342 20.4922 0 19.8491 0L0.931152 0C0.28125 0 0.00683594 0.281342 0.00683594 0.917725L0.00683594 10.2155L1.00684 10.2155C7.61365 10.2154 14.1816 10.2151 20.7734 10.2087L20.7734 9.92551ZM19.7734 9.2094L19.7734 1L1.00684 1L1.00684 9.21532L13.2261 9.21371L19.7734 9.2094ZM7.91357 1.71463L7.91357 9.12219L9.41406 8.25424L11.2412 7.1976L14.3232 5.41895L10.7358 3.34995L7.91357 1.71463ZM9.91357 6.81025C9.5835 7.00119 9.2511 7.19348 8.91357 7.38861L8.91357 3.4498C9.24857 3.64499 9.58128 3.83785 9.91357 4.02993C10.382 4.30072 10.8497 4.56995 11.3217 4.84194C11.6525 5.03252 11.9854 5.22445 12.3223 5.41922C11.985 5.61339 11.6524 5.80526 11.3214 5.99635C10.8514 6.26778 10.3848 6.53764 9.91357 6.81025ZM7.37979 11.9255L7.37988 11.9303C7.38672 12.2183 7.60742 12.2451 7.83545 12.2451C8.39795 12.2407 8.96387 12.2422 9.52832 12.2437C9.81055 12.2444 10.0923 12.2451 10.3735 12.2451L12.4886 12.2451Q12.5077 12.2777 12.5294 12.3076L14.3436 12.3056Q14.3933 12.1263 14.3936 11.9255L19.7621 11.9255Q19.7623 12.1372 19.7586 12.3039L17.3315 12.3102L16.4997 12.3102Q16.4246 12.3035 16.3457 12.3035L14.3436 12.3056L13.3936 11.9255L13.3936 11.9236C13.3936 11.6288 13.166 11.5753 12.9248 11.5753L7.8418 11.5753C7.59559 11.5753 7.37545 11.6349 7.37979 11.9255Z" clip-rule="evenodd" fill="#E60000" fill-opacity="1.000000" fill-rule="evenodd"/>
</svg>
