<svg width="20.164062" height="15.118408" viewBox="0 0 20.1641 15.1184" fill="none" xmlns="http://www.w3.org/2000/svg" xmlns:xlink="http://www.w3.org/1999/xlink">
	<desc>
			Created with Pixso.
	</desc>
	<defs>
		<filter id="filter_291_5156_dd" x="0.000000" y="0.000000" width="20.164062" height="15.118408" filterUnits="userSpaceOnUse" color-interpolation-filters="sRGB">
			<feFlood flood-opacity="0" result="BackgroundImageFix"/>
			<feGaussianBlur in="BackgroundImage" stdDeviation="4"/>
			<feComposite in2="SourceAlpha" operator="in" result="effect_backgroundBlur_1"/>
			<feBlend mode="normal" in="SourceGraphic" in2="effect_backgroundBlur_1" result="shape"/>
		</filter>
	</defs>
	<g filter="url(#filter_291_5156_dd)">
		<mask id="mask_291_5156" fill="white">
			<path id="Union" d="M9.54492 3.35651C9.71973 3.3558 9.89453 3.3551 10.0684 3.3551C10.2485 3.3551 10.4292 3.3558 10.6104 3.35649C10.9741 3.35789 11.3403 3.3593 11.7061 3.3551C12.2725 3.34251 12.5938 3.02148 12.6001 2.44865Q12.605 2.07059 12.605 1.69252Q12.605 1.31522 12.6001 0.937912C12.6001 0.33992 12.2666 0 11.668 0L8.48779 0C7.89551 0.00630188 7.56787 0.33992 7.56152 0.944214L7.56152 2.42348C7.56152 3.02777 7.88281 3.34882 8.49365 3.3551C8.84277 3.3593 9.19434 3.35789 9.54492 3.35651ZM3.55615 5.0421L16.6245 5.0421C17.7837 5.0421 18.4639 5.71564 18.4761 6.86757C18.4824 7.45927 18.5835 7.5537 19.1753 7.56C19.8364 7.56 20.1641 7.88103 20.1641 8.53569L20.1641 11.6201C20.1641 12.2748 19.8364 12.5958 19.1753 12.5958C18.5835 12.5958 18.4824 12.6965 18.4761 13.2882C18.4697 14.4402 17.7837 15.12 16.6245 15.1137C15.6802 15.1074 14.7354 15.1074 13.7969 15.0634C13.249 15.0382 12.7642 14.799 12.3296 14.4779C11.895 14.1632 11.4727 13.8359 11.0444 13.5211C10.3833 13.0238 9.80371 13.0238 9.14258 13.5148C8.7207 13.8296 8.30518 14.1443 7.88281 14.459C7.29102 14.8934 6.62354 15.1137 5.88672 15.1137Q5.27246 15.1184 4.6582 15.1184L4.64844 15.1184L4.64209 15.1184Q4.03613 15.1183 3.43018 15.1137C2.41016 15.1074 1.71094 14.415 1.69189 13.3952L1.69189 13.112C1.67334 12.7469 1.52832 12.6084 1.16309 12.5958L0.848145 12.5958C0.356934 12.5706 0.0102539 12.2433 0.0102539 11.7586C-0.00195312 10.6381 -0.00195312 9.51137 0.00390625 8.3909C0.0102539 7.91879 0.350586 7.59148 0.816406 7.56C0.866699 7.55582 0.914062 7.55719 0.962402 7.55858C0.986816 7.55928 1.01172 7.56 1.03711 7.56C1.55957 7.56 1.6792 7.4404 1.68555 6.91164C1.69824 5.70305 2.35938 5.0421 3.55615 5.0421Z" clip-rule="evenodd" fill="" fill-opacity="1.000000" fill-rule="evenodd"/>
		</mask>
		<path id="Union" d="M9.54492 3.35651C9.71973 3.3558 9.89453 3.3551 10.0684 3.3551C10.2485 3.3551 10.4292 3.3558 10.6104 3.35649C10.9741 3.35789 11.3403 3.3593 11.7061 3.3551C12.2725 3.34251 12.5938 3.02148 12.6001 2.44865Q12.605 2.07059 12.605 1.69252Q12.605 1.31522 12.6001 0.937912C12.6001 0.33992 12.2666 0 11.668 0L8.48779 0C7.89551 0.00630188 7.56787 0.33992 7.56152 0.944214L7.56152 2.42348C7.56152 3.02777 7.88281 3.34882 8.49365 3.3551C8.84277 3.3593 9.19434 3.35789 9.54492 3.35651ZM3.55615 5.0421L16.6245 5.0421C17.7837 5.0421 18.4639 5.71564 18.4761 6.86757C18.4824 7.45927 18.5835 7.5537 19.1753 7.56C19.8364 7.56 20.1641 7.88103 20.1641 8.53569L20.1641 11.6201C20.1641 12.2748 19.8364 12.5958 19.1753 12.5958C18.5835 12.5958 18.4824 12.6965 18.4761 13.2882C18.4697 14.4402 17.7837 15.12 16.6245 15.1137C15.6802 15.1074 14.7354 15.1074 13.7969 15.0634C13.249 15.0382 12.7642 14.799 12.3296 14.4779C11.895 14.1632 11.4727 13.8359 11.0444 13.5211C10.3833 13.0238 9.80371 13.0238 9.14258 13.5148C8.7207 13.8296 8.30518 14.1443 7.88281 14.459C7.29102 14.8934 6.62354 15.1137 5.88672 15.1137Q5.27246 15.1184 4.6582 15.1184L4.64844 15.1184L4.64209 15.1184Q4.03613 15.1183 3.43018 15.1137C2.41016 15.1074 1.71094 14.415 1.69189 13.3952L1.69189 13.112C1.67334 12.7469 1.52832 12.6084 1.16309 12.5958L0.848145 12.5958C0.356934 12.5706 0.0102539 12.2433 0.0102539 11.7586C-0.00195312 10.6381 -0.00195312 9.51137 0.00390625 8.3909C0.0102539 7.91879 0.350586 7.59148 0.816406 7.56C0.866699 7.55582 0.914062 7.55719 0.962402 7.55858C0.986816 7.55928 1.01172 7.56 1.03711 7.56C1.55957 7.56 1.6792 7.4404 1.68555 6.91164C1.69824 5.70305 2.35938 5.0421 3.55615 5.0421Z" clip-rule="evenodd" fill="#E60000" fill-opacity="1.000000" fill-rule="evenodd" mask="url(#mask_291_5156)"/>
	</g>
	<path id="Union" d="M1.69189 13.112L1.69189 13.3952C1.71094 14.415 2.41016 15.1074 3.43018 15.1137Q4.03613 15.1183 4.64209 15.1184L4.6582 15.1184Q5.27246 15.1184 5.88672 15.1137C6.62354 15.1137 7.29102 14.8934 7.88281 14.459C8.30518 14.1443 8.7207 13.8296 9.14258 13.5148C9.80371 13.0238 10.3833 13.0238 11.0444 13.5211C11.4727 13.8359 11.895 14.1632 12.3296 14.4779C12.7642 14.799 13.249 15.0382 13.7969 15.0634C14.7354 15.1074 15.6802 15.1074 16.6245 15.1137C17.7837 15.12 18.4697 14.4402 18.4761 13.2882C18.4824 12.6965 18.5835 12.5958 19.1753 12.5958C19.8364 12.5958 20.1641 12.2748 20.1641 11.6201L20.1641 8.53569C20.1641 7.88103 19.8364 7.56 19.1753 7.56C18.5835 7.5537 18.4824 7.45927 18.4761 6.86757C18.4639 5.71564 17.7837 5.0421 16.6245 5.0421L3.55615 5.0421C2.35938 5.0421 1.69824 5.70305 1.68555 6.91164C1.6792 7.4404 1.55957 7.56 1.03711 7.56C1.01172 7.56 0.986816 7.55928 0.962402 7.55858L0.962074 7.55857C0.913848 7.55718 0.866585 7.55583 0.816406 7.56C0.350586 7.59148 0.0102539 7.91879 0.00390625 8.3909C-0.00195312 9.51137 -0.00195312 10.6381 0.0102539 11.7586C0.0102539 12.2433 0.356934 12.5706 0.848145 12.5958L1.16309 12.5958C1.52832 12.6084 1.67334 12.7469 1.69189 13.112ZM1.00926 11.5958L1.18018 11.5958L1.19727 11.5964Q1.74163 11.6152 2.10704 11.8804Q2.18477 11.9368 2.25439 12.0044Q2.33158 12.0795 2.39521 12.1646Q2.66282 12.5228 2.69043 13.0603L2.69189 13.0861L2.69189 13.3767Q2.69794 13.7182 2.87094 13.9052Q2.8796 13.9146 2.88867 13.9236Q2.89974 13.9345 2.91137 13.9448Q3.09974 14.1116 3.43408 14.1137L4.64209 14.1184L4.64844 14.1184L4.65479 14.1184L5.88672 14.1137Q6.29396 14.1137 6.65821 13.9886Q6.98837 13.8751 7.2832 13.6589L7.9082 13.1905L8.54639 12.7119Q9.26346 12.1796 10.0012 12.1492Q10.0487 12.1472 10.0962 12.1474Q10.1627 12.1475 10.229 12.1517Q10.9478 12.1972 11.6367 12.7153Q11.8296 12.8572 12.209 13.1426Q12.6802 13.4971 12.9233 13.6736Q13.4268 14.0453 13.8438 14.0645Q14.6445 14.1021 16.2764 14.1115Q16.5132 14.1129 16.6299 14.1137Q17.085 14.1162 17.2803 13.9236Q17.4736 13.7325 17.4766 13.2776Q17.48 12.9443 17.5264 12.7236Q17.5984 12.3831 17.7905 12.1357Q17.8419 12.0695 17.9019 12.01Q17.9641 11.9484 18.0334 11.896Q18.2815 11.7086 18.6196 11.6405Q18.838 11.5965 19.1641 11.5958L19.1641 8.55993Q18.8333 8.55639 18.6167 8.51207Q18.273 8.44175 18.0233 8.24945Q17.9611 8.2016 17.9048 8.14619Q17.8423 8.08465 17.789 8.01591Q17.5986 7.7701 17.5269 7.43236Q17.48 7.21179 17.4766 6.87851Q17.4712 6.42561 17.2778 6.23456Q17.083 6.0421 16.6245 6.0421L3.55615 6.0421Q3.07275 6.0421 2.88379 6.23093Q2.69092 6.42386 2.68555 6.92355Q2.68164 7.24031 2.62842 7.46654Q2.55388 7.78 2.37465 8.0129Q2.3226 8.08054 2.26172 8.14139Q2.19499 8.20809 2.12023 8.26407Q1.88921 8.43706 1.58154 8.50769Q1.354 8.56 1.03711 8.56Q1.02199 8.56 1.00352 8.55974L1 10.0781L1.00926 11.5958ZM10.0684 3.3551C9.89453 3.3551 9.71973 3.3558 9.54492 3.35651L9.54278 3.35651C9.19291 3.3579 8.84206 3.35929 8.49365 3.3551C7.88281 3.34882 7.56152 3.02777 7.56152 2.42348L7.56152 0.944214C7.56787 0.33992 7.89551 0.00630188 8.48779 0L11.668 0C12.2666 0 12.6001 0.33992 12.6001 0.937912Q12.605 1.31522 12.605 1.69252Q12.605 2.07059 12.6001 2.44865C12.5938 3.02148 12.2725 3.34251 11.7061 3.3551C11.3403 3.3593 10.9741 3.35789 10.6104 3.35649C10.4292 3.3558 10.2485 3.3551 10.0684 3.3551ZM10.0659 2.3551L9.54199 2.35651L9.54053 2.35651Q8.9023 2.35906 8.56152 2.35578L8.56152 1L11.6007 1Q11.6039 1.25817 11.6047 1.5163Q11.605 1.60442 11.605 1.69254Q11.605 2.02369 11.6011 2.35607Q11.2478 2.35894 10.6133 2.35651L10.0659 2.3551ZM11.5955 2.4946L11.5952 2.49596L11.5955 2.4946Z" clip-rule="evenodd" fill="#E60000" fill-opacity="1.000000" fill-rule="evenodd"/>
</svg>
