<svg width="16.250000" height="16.250000" viewBox="0 0 16.25 16.25" fill="none" xmlns="http://www.w3.org/2000/svg" xmlns:xlink="http://www.w3.org/1999/xlink">
	<desc>
			Created with Pixso.
	</desc>
	<defs/>
	<path id="Subtract" d="M8.125 0C3.6377 0 0 3.63768 0 8.125C0 12.6123 3.6377 16.25 8.125 16.25C12.6123 16.25 16.25 12.6123 16.25 8.125C16.25 3.63768 12.6123 0 8.125 0ZM8.75 3.125C8.75 2.77982 8.46973 2.5 8.125 2.5C7.78027 2.5 7.5 2.77982 7.5 3.125L7.5 8.125C7.5 8.47018 7.78027 8.75 8.125 8.75L11.875 8.75C12.2197 8.75 12.5 8.47018 12.5 8.125C12.5 7.77982 12.2197 7.5 11.875 7.5L8.75 7.5L8.75 3.125Z" fill="#999999" fill-opacity="1.000000" fill-rule="evenodd"/>
</svg>
