<svg width="17.943359" height="13.750000" viewBox="0 0 17.9434 13.75" fill="none" xmlns="http://www.w3.org/2000/svg" xmlns:xlink="http://www.w3.org/1999/xlink">
	<desc>
			Created with Pixso.
	</desc>
	<defs/>
	<path id="Union" d="M8.97266 0C4.8291 0 1.31445 2.6881 0.0751953 6.41391C-0.0253906 6.71486 -0.0253906 7.04041 0.0751953 7.34129C1.31641 11.0644 4.8291 13.75 8.9707 13.75C13.1152 13.75 16.6289 11.0619 17.8691 7.33609C17.9688 7.03514 17.9688 6.70959 17.8682 6.40871C16.6279 2.68559 13.1143 0 8.97266 0ZM8.97266 11.25C11.3887 11.25 13.3477 9.29124 13.3477 6.875C13.3477 4.45876 11.3887 2.5 8.97266 2.5C6.55566 2.5 4.59766 4.45876 4.59766 6.875C4.59766 9.29124 6.55566 11.25 8.97266 11.25ZM11.4727 6.875C11.4727 8.25571 10.3525 9.375 8.97266 9.375C7.5918 9.375 6.47266 8.25571 6.47266 6.875C6.47266 5.49429 7.5918 4.375 8.97266 4.375C10.3525 4.375 11.4727 5.49429 11.4727 6.875Z" fill="#999999" fill-opacity="1.000000" fill-rule="evenodd"/>
</svg>
