<svg width="20.000000" height="19.878418" viewBox="0 0 20 19.8784" fill="none" xmlns="http://www.w3.org/2000/svg" xmlns:xlink="http://www.w3.org/1999/xlink">
	<desc>
			Created with Pixso.
	</desc>
	<defs/>
	<path id="Vector" d="M20 10C20 4.47705 15.5229 0 10 0C4.47705 0 0 4.47705 0 10C0 14.9912 3.65674 19.1284 8.4375 19.8784L8.4375 12.8906L5.89844 12.8906L5.89844 10L8.4375 10L8.4375 7.79688C8.4375 5.29053 9.93066 3.90625 12.2148 3.90625C13.3086 3.90625 14.4531 4.10156 14.4531 4.10156L14.4531 6.5625L13.1924 6.5625C11.9502 6.5625 11.5625 7.3335 11.5625 8.125L11.5625 10L14.3359 10L13.8926 12.8906L11.5625 12.8906L11.5625 19.8784C16.3433 19.1284 20 14.9912 20 10Z" fill="#FFFFFF" fill-opacity="1.000000" fill-rule="nonzero"/>
</svg>
