<svg width="20.000000" height="20.000000" viewBox="0 0 20 20" fill="none" xmlns="http://www.w3.org/2000/svg" xmlns:xlink="http://www.w3.org/1999/xlink">
	<desc>
			Created with Pixso.
	</desc>
	<defs/>
	<path id="Vector" d="M18.5195 0L1.47656 0C0.660156 0 0 0.644531 0 1.44141L0 18.5547C0 19.3516 0.660156 20 1.47656 20L18.5195 20C19.3359 20 20 19.3516 20 18.5586L20 1.44141C20 0.644531 19.3359 0 18.5195 0ZM5.93359 17.043L2.96484 17.043L2.96484 7.49609L5.93359 7.49609L5.93359 17.043ZM4.44922 6.19531C3.49609 6.19531 2.72656 5.42578 2.72656 4.47656C2.72656 3.52734 3.49609 2.75781 4.44922 2.75781C5.39844 2.75781 6.16797 3.52734 6.16797 4.47656C6.16797 5.42188 5.39844 6.19531 4.44922 6.19531ZM17.043 17.043L14.0781 17.043L14.0781 12.4023C14.0781 11.2969 14.0586 9.87109 12.5352 9.87109C10.9922 9.87109 10.7578 11.0781 10.7578 12.3242L10.7578 17.043L7.79688 17.043L7.79688 7.49609L10.6406 7.49609L10.6406 8.80078L10.6797 8.80078C11.0742 8.05078 12.043 7.25781 13.4844 7.25781C16.4883 7.25781 17.043 9.23438 17.043 11.8047L17.043 17.043Z" fill="#FFFFFF" fill-opacity="1.000000" fill-rule="nonzero"/>
</svg>
