<svg width="20.000000" height="16.250488" viewBox="0 0 20 16.2505" fill="none" xmlns="http://www.w3.org/2000/svg" xmlns:xlink="http://www.w3.org/1999/xlink">
	<desc>
			Created with Pixso.
	</desc>
	<defs/>
	<path id="Vector" d="M6.29199 16.2505C13.8369 16.2505 17.9653 9.9978 17.9653 4.57715C17.9653 4.40137 17.9614 4.22168 17.9536 4.0459C18.7563 3.46509 19.4497 2.74585 20 1.92163C19.252 2.25439 18.458 2.47168 17.645 2.56616C18.501 2.05298 19.1421 1.24683 19.4492 0.297119C18.6436 0.774414 17.7632 1.11108 16.8447 1.29272C16.2256 0.635254 15.4077 0.199951 14.5166 0.0539551C13.6255 -0.0917969 12.7109 0.0598145 11.9146 0.485596C11.1187 0.911621 10.4849 1.58789 10.1113 2.41016C9.73828 3.23218 9.646 4.15454 9.84961 5.03418C8.21875 4.95239 6.62305 4.52881 5.1665 3.79077C3.70996 3.05273 2.4248 2.01685 1.39404 0.750244C0.870117 1.65332 0.709961 2.72192 0.945801 3.73901C1.18164 4.7561 1.7959 5.64526 2.66357 6.22559C2.01221 6.20483 1.375 6.02954 0.804688 5.71387L0.804688 5.76465C0.804199 6.7124 1.13184 7.6311 1.73193 8.3645C2.33203 9.09814 3.16797 9.60107 4.09668 9.78809C3.49316 9.95312 2.85986 9.97729 2.24561 9.8584C2.50781 10.6736 3.01807 11.3862 3.70459 11.8975C4.3916 12.4087 5.2207 12.6929 6.07715 12.71C4.62354 13.8516 2.82861 14.4707 0.980469 14.4678C0.652832 14.4673 0.325195 14.4473 0 14.4077C1.87744 15.6121 4.06104 16.2517 6.29199 16.2505Z" fill="#FFFFFF" fill-opacity="1.000000" fill-rule="nonzero"/>
</svg>
